<?xml version="1.0" encoding="UTF-8"?>
<svg viewBox="0 0 744.09 1052.4" xmlns="http://www.w3.org/2000/svg">
 <g stroke="#000">
  <path d="m209.27 228.49c-82.828 55.752-137.77 152.95-137.77 263.56 0 172.92 134.17 313.24 299.5 313.24s299.53-140.32 299.53-313.24c0-114.15-58.51-214.06-145.82-268.83-19.972-9.6254-109.8-64.749 0 9.9443 27.871 18.103 52.915 40.936 73.368 67.654 50.724 64.739 73.047 152.25 61.484 235.08-11.212 85.658-60.059 164.26-128.96 211.32-67.714 47.292-154.87 61.453-233.51 39.81-83.922-22.091-155.9-86.607-191.61-168.92-38.302-86.028-33.719-191.16 10.395-273.8 22.158-42.643 54.816-78.766 93.398-105.64 109.05-81.636 27.966-29.223 0-10.176z" stroke-linecap="round" stroke-linejoin="round" stroke-width="2.748"/>
  <path d="m242.67 842.78c0.002701-1.1536 58.147-30.154 68.561-34.196 14.373-5.5786 38.063-9.5925 46.46-7.872l6.103 1.2505-6.8155 8.1577c-3.7485 4.4867-9.9766 10.358-13.84 13.048-9.3229 6.4904-32.133 14.252-49.595 16.876-12.301 1.8483-50.876 3.9231-50.873 2.7364zm231.51-0.6364c-26.108-1.5767-28.094-1.9407-52.434-9.6077-14.562-4.587-18.286-6.804-29.527-17.578l-12.864-12.328 5.6801-1.5908c14.613-4.0928 61.509 9.4077 82.048 23.62 3.9029 2.7007 9.3318 5.5789 12.064 6.3958 6.2278 1.8619 23.847 10.868 23.847 12.19 0 0.54102-1.1178 0.8385-2.484 0.66107s-13.215-0.97058-26.331-1.7626zm-284.18-34.931c-10.93-3.397-23.761-7.2895-28.514-8.6499l-8.6417-2.4736 14.604-2.528c8.0319-1.3904 23.271-4.3019 33.864-6.4698 29.541-6.0456 59.13-4.2895 78.27 4.6453l5.1169 2.3886-6.3893 5.7153c-16.736 14.97-53.884 18.072-88.31 7.3722zm295.24 2.3534c-14.215-5.2376-27.201-14.353-23.484-16.484 7.7664-4.4529 33.679-9.9327 46.97-9.9327 12.253 0 44.525 5.0577 75.312 11.803 5.8038 1.2716 3.3525 2.3925-22.051 10.084-24.93 7.5476-30.968 8.6435-47.268 8.5795-13.381-0.052612-21.752-1.2025-29.479-4.0496zm-164.37-16.422c-12.545-3.7242-38.648-33.995-43.407-50.338l-1.3726-4.7138 8.5828 4.4859c4.7205 2.4673 14.765 6.6403 22.321 9.2733 25.131 8.7571 36.689 18.225 43.933 35.988l3.069 7.5253-13.441-0.1837c-7.3923-0.10095-16.251-1.0179-19.686-2.0375zm70.831-1.4064c0-5.5491 14.168-23.646 23.428-29.924 4.0865-2.7706 13.159-6.9644 20.161-9.3194 7.0021-2.355 17.137-6.4595 22.522-9.1212l9.7912-4.8393-1.2657 5.1667c-3.0583 12.484-22.433 37.762-34.492 45.002-6.9252 4.158-12.319 5.5349-24.512 6.2581-14.703 0.87201-15.633 0.68024-15.633-3.2236zm-125.2-9.999c-21.477-7.8483-36.674-25.618-44.79-52.373-2.7458-9.0513-5.5459-20.409-6.2224-25.239l-1.23-8.7816 26.765 27.105c27.619 27.97 33.252 36.34 34.97 51.964 0.99942 9.0842-0.8244 10.491-9.4922 7.3239zm201.25-6.6985c2.3487-17.94 12.541-31.683 50.34-67.873l12.127-11.611-1.6136 10.458c-5.1702 33.508-22.247 62.688-42.279 72.244-5.5937 2.6684-12.3 4.8607-14.903 4.8716-4.3734 0.018372-4.6523-0.59607-3.6713-8.0894zm-311.54-12.008c-22.876-7.2728-28.8-10.288-50.701-25.802-12.126-8.5902-21.776-15.818-21.444-16.063 3.0026-2.2063 74.662 5.7953 80.939 9.0378 1.7212 0.8891 8.9422 4.5173 16.046 8.0627 7.1044 3.5454 16.407 9.5854 20.672 13.422l7.7545 6.9761-7.1329 3.0533c-11.854 5.0745-32.456 5.6606-46.134 1.3123zm394.75 1.6393c-4.7617-0.95911-9.9263-2.8224-11.477-4.1408-3.6581-3.1104-0.18048-7.233 14.553-17.252 16.302-11.086 34.709-16.792 61.616-19.098 34.642-2.9698 44.056-3.3073 42.987-1.5408-2.2816 3.7708-43.21 30.369-52.763 34.289-22.279 9.1423-37.391 11.273-54.917 7.7433zm-357.47-26.929c-12.48-9.6484-23.701-26.083-26.348-38.591-1.2654-5.9795-1.9822-22.316-1.6298-37.142l0.6291-26.468 7.2622 14.252c3.9942 7.8385 9.6033 17.758 12.465 22.044 13.898 20.817 21.653 49.029 17.842 64.915l-1.799 7.501-8.4215-6.5105zm347.72-13.926c1.0517-21.957 4.4343-32.794 14.952-47.901 2.4708-3.5489 8.4169-13.978 13.214-23.175l8.7211-16.722 1.3916 17.115c1.6734 20.582-1.1244 46.984-6.1372 57.913-3.9152 8.5364-20.788 27.079-28.478 31.295l-4.6738 2.5627 1.0101-21.088zm-423.02-25.099c-6.7016-1.5186-15.191-4.3538-18.865-6.3004-11.991-6.3529-32.43-24.485-41.41-36.737-4.8356-6.5973-11.477-14.973-14.759-18.612-6.7312-7.464-6.3344-7.8113 4.2116-3.6864 4.1208 1.6118 12.518 3.9424 18.66 5.1793 12.829 2.5831 35.05 12.988 47.553 22.268 9.5016 7.0517 24.294 23.973 28.853 33.004 2.7113 5.3716 2.6646 5.8438-0.58023 5.8693-1.9408 0.01532-5.3172 0.42133-7.5032 0.90222-2.186 0.4809-9.4576-0.3681-16.159-1.8867zm487.63 1.5517c-3.0057-0.47607-5.4649-1.3286-5.4649-1.8947 0-4.0452 12.154-20.717 21.623-29.661 13.074-12.349 39.9-26.841 55.978-30.24 5.9576-1.2596 14.752-3.6104 19.543-5.2241 10.322-3.4768 12.554-2.4574 5.292 2.4174-2.8716 1.9276-8.2986 8.1851-12.06 13.906-11.624 17.678-17.974 23.74-42.391 40.471-9.2038 6.3065-32.258 11.851-42.518 10.226zm-471-27.048c-5.1529-6.1676-7.6176-11.897-10.103-23.486-1.8082-8.4305-3.2875-18.866-3.2875-23.19 0-11.322 7.2543-45.795 11.738-55.781 3.7732-8.4031 3.8274-8.4358 4.001-2.4107 0.096756 3.3594 3.2905 18.934 7.0972 34.612 4.3362 17.857 6.9308 33.499 6.9469 41.877 0.02536 13.23-4.3887 33.252-7.808 35.417-0.97278 0.61597-4.8357-2.5511-8.5843-7.0379zm463.81 2.4368c-8.0486-20.835-7.7418-34.456 1.6377-72.693 3.2962-13.437 6.0046-26.897 6.0186-29.91 0.082947-17.802 8.8027 2.3089 13.968 32.215 4.965 28.745-1.4697 62.238-13.743 71.535l-5.7542 4.3586-2.127-5.5058zm-516.67-57.524c-14.246-5.1832-28.514-16.665-37.022-29.794-3.8378-5.9219-12.308-21.792-18.823-35.267l-11.845-24.5 9.3627 5.5151c5.1495 3.0333 14.59 9.2355 20.978 13.783 6.3883 4.5471 14.751 10.218 18.584 12.602 14.388 8.9479 30.711 35.036 33.632 53.753 1.4755 9.4532 0.83472 9.6216-14.867 3.909zm564.1 1.0535c0-1.7158 2.8078-10.579 6.2395-19.696 7.0234-18.659 16.318-30.414 33.272-42.078 15.501-10.665 40.782-26.711 42.096-26.718 2.0973-0.012085-23.946 51.851-30.839 61.414-8.0665 11.19-21.402 21.083-35.575 26.39-12.345 4.6229-15.194 4.752-15.194 0.68872zm-550.27-26.342c-5.348-14.644-5.4134-33.163-0.17843-50.528 4.2573-14.122 29.772-56.503 29.677-49.295-0.31342 23.697-4.2844 71.216-6.5706 78.626-3.9009 12.645-9.9097 24.407-14.768 28.908-3.93 3.6412-4.0591 3.5194-8.1604-7.7112zm543.78 7.5744c-4.7989-5.4594-12.594-22.799-15.178-33.763-2.0308-8.6163-6.588-74.764-5.2512-76.222 1.4869-1.6216 25.446 39.006 29.143 49.418 6.1216 17.24 6.0624 41.182-0.13458 54.459-2.4827 5.319-4.7241 9.6709-4.9809 9.6709-0.25671 0-1.8761-1.6033-3.5986-3.563zm-580.13-73c-18.171-12.26-28.431-32.977-34.277-69.215-1.6442-10.191-3.6303-20.269-4.4136-22.396-1.0927-2.9664 0.24473-2.4447 5.7462 2.2416 3.9437 3.3593 9.3561 7.6583 12.028 9.5532 8.3636 5.9325 29.679 38.436 33.574 51.198 4.4035 14.425 4.9574 35.957 0.92502 35.957-1.4872 0-7.5992-3.3027-13.582-7.3395zm609.15-7.8143c1.472-17.842 6.0615-31.26 15.407-45.044 6.9901-10.311 36.952-41.6 39.835-41.6 0.8927 0 0.74109 2.3766-0.33679 5.2812-1.078 2.9047-3.2159 13.212-4.751 22.905-5.397 34.077-16.763 55.932-34.835 66.983-16.095 9.8418-16.802 9.4484-15.319-8.524zm-587.95-9.9892c-0.90263-7.4015-0.29539-15.067 1.8951-23.923 5.489-22.191 11.579-32.286 30.915-51.245 9.852-9.6599 17.913-17.096 17.913-16.525 0 0.57114-1.4299 5.7915-3.1777 11.601-9.674 32.156-15.722 49.789-19.294 56.249-5.4876 9.9248-23.679 34.734-25.468 34.734-0.80007 0-2.0524-4.9011-2.7829-10.891zm571.86 1.0539c-16.119-19.585-24.792-39.507-39.15-89.925l-1.4495-5.0899 4.9322 5.0899c2.7128 2.7995 11.659 11.792 19.88 19.984 12.737 12.69 15.744 17.058 20.325 29.522 5.7167 15.553 8.4205 38.015 5.5126 45.796-1.6987 4.5458-2.0299 4.3686-10.05-5.3762zm-585.89-67.308c-15.861-9.9093-22.196-31.864-19.699-68.277 0.85016-12.4 1.5678-25.45 1.5948-29.001 0.04763-6.2758 0.23772-6.1342 6.8295 5.0899 3.7293 6.35 8.0187 12.951 9.5321 14.668 4.0869 4.6388 11.933 23.868 14.797 36.265 2.5172 10.896 1.8947 22.341-2.0265 37.26-2.3696 9.0159-2.7628 9.1584-11.028 3.995zm600.9-0.731c-1.6129-2.9095-2.5448-12.381-2.554-25.959-0.013611-20.028 0.39124-22.213 6.4139-34.612 3.5358-7.2786 10.335-19.408 15.109-26.954l8.6808-13.72 1.7038 19.828c2.9957 34.862 0.8551 54.292-7.7469 70.319-3.5268 6.5709-13.914 15.678-17.882 15.678-0.65228 0-2.3287-2.0614-3.7254-4.5809zm-581.85-12.841c0-17.214 9.8707-36.083 26.918-51.456 7.1772-6.4726 42.019-26.812 45.93-26.812 0.58641 0-1.7536 3.4357-5.2002 7.6349s-11.642 15.881-18.212 25.959c-13.16 20.185-26.155 34.882-38.863 43.952-10.122 7.2245-10.572 7.2552-10.572 0.7226zm563.35-0.1514c-11.781-7.9761-28.583-25.186-32.869-33.668-5.8602-11.596-15.892-26.44-23.12-34.21-3.6155-3.8866-6.5736-7.8405-6.5736-8.7865 0-0.94598 9.0017 3.1029 20.004 8.9976 15.683 8.4026 22.751 13.702 32.725 24.533 12.679 13.77 15.521 19.772 19.826 41.874 1.5607 8.012 0.22955 8.1798-9.9922 1.2591zm-560.74-68.327c-12.869-22.345-12.371-36.868 2.8433-82.914l5.6614-17.135 6.718 20.879c5.2935 16.452 6.7131 24.187 6.6947 36.476-0.025635 17.114-5.4019 34.937-13.419 44.486l-4.4285 5.2747-4.0701-7.0675zm560.43 4.162c-1.1904-1.5147-4.7295-7.793-7.8649-13.952-5.3013-10.414-5.6916-12.766-5.5732-33.594 0.11359-19.988 0.78809-24.147 6.2728-38.683 3.7126-9.8394 6.6042-15.079 7.3041-13.234 8.7063 22.951 17.021 53.914 17.064 63.548 0.038757 8.6027-6.4456 27.797-11.589 34.304-2.8236 3.5724-3.8423 3.8647-5.6138 1.6104zm-540.03-12.425c6.844-22.112 35.125-43.245 68.738-51.363 19.757-4.7719 21.149-4.0322 9.4119 5.003-5.7887 4.4562-13.703 11.149-17.588 14.873-16.637 15.948-49.101 35.997-58.368 36.048-2.843 0.015686-3.3099-0.95493-2.1938-4.561zm518.71 3.1177c-7.0734-1.8539-27.981-14.693-38.945-23.915-6.0114-5.0566-17.363-14.446-25.226-20.864-7.863-6.4189-13.992-11.982-13.62-12.363 1.8754-1.9214 26.935 4.6629 41.467 10.895 18.634 7.9918 33.913 21.065 40.814 34.922 6.3037 12.659 5.7671 14.013-4.489 11.325zm-501.58-66.233c-3.0068-14.196-1.2423-31.277 4.4371-42.952 2.8075-5.771 10.844-17.623 17.86-26.337l12.755-15.845 1.389 13.289c3.0467 29.147-3.9287 53.385-20.09 69.809-5.7849 5.8789-11.418 10.689-12.518 10.689s-2.8248-3.8938-3.8328-8.6529zm478.02-0.3283c-5.5753-5.268-11.682-13.828-14.873-20.847-4.844-10.656-5.488-14.694-6.1204-38.377l-0.7067-26.468 7.6304 8.9765c22.119 26.021 28.134 37.252 29.786 55.616 1.0996 12.22-1.7828 30.106-4.8443 30.058-0.77759-0.011932-5.6703-4.0437-10.873-8.9594zm-448.31-7.4443c16.979-16.459 33.98-22.282 64.893-22.227 21.85 0.039368 25.727 2.1567 12.929 7.0607-5.2519 2.0124-16.703 7.2852-25.447 11.717-17.42 8.83-35.905 13.676-52.375 13.731l-10.643 0.0353 10.643-10.318zm410.08 7.424c-6.5579-1.372-20.419-6.6476-30.802-11.724-10.383-5.0759-22.223-10.458-26.311-11.959-10.707-3.9336-5.69-5.9312 14.989-5.968 31.77-0.05661 51.913 7.3419 68.845 25.286l6.8484 7.258-10.823-0.1995c-5.9526-0.10971-16.188-1.322-22.746-2.6941zm-355.24-41.815c-4.1108-0.81673-8.0388-2.0635-8.729-2.7706-2.2539-2.3091 3.2107-6.9553 13.782-11.718 15.871-7.1504 40.567-6.7022 63.529 1.153 9.5636 3.2717 17.388 6.6757 17.388 7.5646 0 0.88887-3.3535 1.6238-7.4522 1.6331-4.0987 0.009277-17.289 1.3657-29.312 3.0142-23.329 3.1988-37.17 3.5148-49.206 1.1235zm281.71-0.0414c-6.5579-0.9137-19.345-2.3515-28.415-3.1952-9.0704-0.84369-15.777-2.25-14.904-3.125 3.3561-3.3641 32.091-11.9 44.414-13.194 14.916-1.5657 34.527 2.66 43.825 9.4434 6.6239 4.8323 7.1764 6.9979 2.2774 8.9266-5.681 2.2366-34.364 2.9317-47.197 1.1437zm-309.88-7.3816c-4.3509-17.76 8.6787-39.786 33.844-57.209 6.456-4.4699 13.656-9.1632 16-10.429l4.2624-2.3023-3.5437 14.114c-4.9864 19.861-10.588 30.671-22.106 42.658-8.1541 8.4869-22.371 18.472-26.3 18.472-0.47157 0-1.4421-2.387-2.1568-5.3043zm368.31 1.2428c-9.3392-5.0502-27.283-25.233-31.885-35.864-3.8017-8.7823-10.433-33.265-9.3066-34.362 0.36072-0.35141 7.1394 3.6617 15.064 8.918 16.033 10.635 33.312 30.016 36.491 40.93 2.418 8.3016 1.6697 22.847-1.218 23.677-1.093 0.31409-5.2085-1.1708-9.1456-3.2998zm-304.76-37.167c4.1447-19.718 14.403-27.83 45.625-36.078 7.6509-2.0212 15.566-4.3695 17.589-5.2184 6.9773-2.9277-2.0712 10.834-17.552 26.694-14.871 15.236-26.516 21.219-41.295 21.219-5.4577 0-5.6862-0.34605-4.3681-6.6169zm231.57 3.2641c-4.844-1.7371-12.343-6.0453-16.664-9.5737-7.3707-6.0182-29.697-34.048-28.278-35.501 0.357-0.36574 4.9954 0.71431 10.308 2.4001 5.3122 1.6858 15.346 4.7151 22.296 6.7317 19.354 5.6153 34.062 20.797 34.062 35.159 0 3.3304-1.2597 4.1184-6.4585 4.0402-3.5522-0.053467-10.422-1.5185-15.266-3.2557z" stroke-width="1.015"/>
 </g>
</svg>
